<?xml version="1.0" encoding="UTF-8" standalone="no"?>
<!-- Created with Inkscape (http://www.inkscape.org/) -->

<svg
   xmlns:dc="http://purl.org/dc/elements/1.1/"
   xmlns:cc="http://creativecommons.org/ns#"
   xmlns:rdf="http://www.w3.org/1999/02/22-rdf-syntax-ns#"
   xmlns:svg="http://www.w3.org/2000/svg"
   xmlns="http://www.w3.org/2000/svg"
   xmlns:sodipodi="http://sodipodi.sourceforge.net/DTD/sodipodi-0.dtd"
   xmlns:inkscape="http://www.inkscape.org/namespaces/inkscape"
   version="1.1"
   id="svg4504"
   xml:space="preserve"
   width="453.18851"
   height="353.14157"
   viewBox="0 0 453.18851 353.14159"
   sodipodi:docname="chaos-siegen.svg"
   inkscape:version="0.92.1 r15371"
   inkscape:export-filename="/home/sammann/Dokumente/2017-10-08-chaos-siegen-logo/logo.png"
   inkscape:export-xdpi="96"
   inkscape:export-ydpi="96"><metadata
     id="metadata4510"><rdf:RDF><cc:Work
         rdf:about=""><dc:format>image/svg+xml</dc:format><dc:type
           rdf:resource="http://purl.org/dc/dcmitype/StillImage" /><dc:title></dc:title></cc:Work></rdf:RDF></metadata><defs
     id="defs4508" /><sodipodi:namedview
     pagecolor="#ffffff"
     bordercolor="#666666"
     borderopacity="1"
     objecttolerance="10"
     gridtolerance="10"
     guidetolerance="10"
     inkscape:pageopacity="0"
     inkscape:pageshadow="2"
     inkscape:window-width="1916"
     inkscape:window-height="1041"
     id="namedview4506"
     showgrid="false"
     inkscape:zoom="1.1060707"
     inkscape:cx="558.61469"
     inkscape:cy="70.909734"
     inkscape:window-x="0"
     inkscape:window-y="18"
     inkscape:window-maximized="0"
     inkscape:current-layer="g4512"
     fit-margin-left="1"
     fit-margin-top="1"
     fit-margin-bottom="1"
     fit-margin-right="1" /><g
     id="g4512"
     inkscape:groupmode="layer"
     inkscape:label="Chaosknoten-4.0"
     transform="matrix(1.3333333,0,0,-1.3333333,-188.00861,735.65587)"><path
       style="fill:#231f20;fill-opacity:1;fill-rule:nonzero;stroke:none"
       d="m 381.2487,330.0941 c -2.3764,0.1489 -1.3593,9.3151 8.2893,10.3193 4.3062,0.4483 8.8785,-0.4718 13.0979,0.6452 2.1678,0.5737 1.1397,-2.2317 0.1343,-8.9048 -0.3701,-2.4566 -19.4411,-2.19 -21.5215,-2.0597 z"
       id="path11832"
       inkscape:connector-curvature="0" /><path
       style="fill:#231f20;fill-opacity:1;fill-rule:nonzero;stroke:none"
       d="m 289.519,514.35 c -0.1047,-2.3873 -6.5449,-1.5191 -8.0319,-1.4957 l -0.2496,0.034 c -6.775,1.7842 -1.1062,16.8545 -8.6417,22.1281 -11.0841,7.7574 -63.095,6.6595 -104.405,2.9044 -8.0195,-0.729 -11.842,-9.0105 -13.5787,-20.3621 -1.7182,-11.2299 -1.2605,-24.5671 -1.4323,-33.7995 -0.2865,-15.3994 0.2527,-32.1089 6.2848,-49.0452 2.4182,-6.7895 8.0358,-9.1102 15.5808,-9.754 18.7552,-1.3703 39.2025,-0.8485 55.4765,-0.7866 19.4406,0.087 35.326,0.5419 38.5718,1.8374 4.446,1.7746 6.4417,8.5247 7.5408,13.4678 0.9319,4.1903 0.9092,7.7505 1.4864,10.2437 1.4153,6.1135 8.8738,6.0122 10.4362,1.5286 2.2262,-6.3883 -3.2376,-26.4178 -4.7346,-31.9708 -2.2454,-8.328 -18.5162,-6.4012 -24.7095,-6.4012 -43.8565,1.1726 -60.5569,0.5055 -103.0062,1.6781 -13.6347,0.3767 -13.5526,59.2596 -14.2216,69.9947 -0.5971,9.5771 0.4453,63.1943 12.6986,63.8442 7.7883,0.4128 23.6669,2.5891 49.4296,2.5959 25.0937,0.01 51.8108,-0.6121 74.8784,-4.4255 4.4216,-0.731 11.4911,-12.5345 10.6272,-32.2168 z"
       id="path11830"
       inkscape:connector-curvature="0" /><path
       style="fill:#231f20;fill-opacity:1;fill-rule:nonzero;stroke:none"
       d="m 415.3051,412.0288 c -6.4262,-2.9837 -17.4411,-6.9224 -24.1233,-1.0112 -0.097,0.086 -0.3523,0.6529 -0.3523,0.7824 v 2.3452 c 0,0.587 0.5003,1.0675 1.0867,1.0439 28.3938,-1.1474 40.8711,39.5642 44.1885,39.8657 3.3418,0.3037 3.7388,-2.3894 4.5906,-4.6605 0.016,-0.042 0.056,-0.5215 0.047,-0.5653 -2.8415,-14.6816 -9.997,-30.3212 -25.4375,-37.8002 z"
       id="path11828"
       inkscape:connector-curvature="0" /><path
       style="fill:#231f20;fill-opacity:1;fill-rule:nonzero;stroke:none"
       d="m 462.8708,395.394 c 7.6108,1.4053 15.3308,5.2036 17.2708,-6.6299 0.054,-0.3275 -0.2515,-0.9395 -0.5455,-1.0938 -9.4609,-4.967 -21.9807,-3.6994 -31.7707,-1.0335 -1.1299,-3.4364 1.187,-8.6863 0.425,-12.9624 -1.4314,-14.0021 -6.6806,-27.4574 -19.2024,-36.1263 l -0.1135,-0.068 c -0.6606,-0.343 -8.5801,-5.7729 -7.8574,-2.1517 2.7717,13.889 -0.3535,4.5763 9.1482,14.2318 2.9407,2.9885 5.469,6.7468 5.6269,10.9318 l 0.038,0.2427 c 5.2842,18.8394 -0.445,37.4705 -13.132,51.3109 -0.3758,0.4098 -0.3458,1.1003 0.064,1.4759 11.5913,10.6253 8.1001,10.9091 13.9895,-0.4359 5.5341,-10.6615 12.5864,-20.1787 26.0588,-17.6913 z"
       id="path11826"
       inkscape:connector-curvature="0" /><path
       style="fill:#231f20;fill-opacity:1;fill-rule:nonzero;stroke:none"
       d="m 403.1501,423.0881 -0.2756,-0.1012 c -10.2083,-2.1876 -23.1075,-8.8539 -31.5188,1.5368 -0.3218,0.3973 -0.2701,1.0841 0.1074,1.4288 5.803,5.2983 15.5928,1.8807 21.7241,5.7411 l 0.2695,0.1203 c 4.8343,1.3813 8.5452,2.6415 11.4148,3.8354 3.3096,1.9475 6.4495,4.2643 9.3941,6.8452 1.2368,2.2777 1.3921,4.7272 2.664,7.775 -7.2197,-5.9169 -15.9931,-10.1496 -24.1272,-12.0358 -8.3825,-1.8629 -20.216,-4.6469 -27.0153,2.4043 -0.1834,0.19 -0.3179,0.8538 -0.2232,1.1001 1.3928,3.6213 5.9678,4.1381 9.259,4.6444 l 0.1197,0.011 c 16.9636,0.6362 33.0346,6.3073 44.0825,18.5037 -17.1118,-10.9632 -37.9602,-20.5334 -58.9136,-12.0981 -2.4033,0.6603 -3.7356,3.8559 -2.2683,5.9184 0.061,0.4149 -0.5491,0.7027 -0.8481,0.8235 -37.3322,-1.6182 -75.135,3.6964 -112.2436,-2.3274 -3.3106,-0.5375 -3.6528,-3.8814 -4.3131,-6.494 -1.6084,-6.3639 2.8706,-18.4018 -1.8857,-22.6633 -1.0742,-0.9621 -7.117,-1.0128 -7.4242,0.6913 -0.5625,3.1211 -2.4144,20.9225 1.7047,30.6144 5.4357,12.7898 52.0243,8.5226 63.9161,8.7631 22.6354,0.4576 48.9003,1.1789 70.6205,-0.1726 -5.9216,4.0341 -14.164,4.2332 -22.6369,4.0266 -30.501,0.4692 -78.1827,0.3116 -97.5119,1.3724 -21.2987,1.1687 -32.4852,-15.3966 -43.4863,-30.1984 -1.0825,-1.4564 -11.5692,-15.7338 -13.3234,-15.7338 h -8.4428 c -1.0474,0 -1.4593,0.8016 -0.8493,1.653 7.6738,10.7115 32.0735,45.6064 42.9778,49.9965 1.3011,0.5239 2.8171,0.9197 4.9607,1.5266 6.0364,1.709 37.5294,1.5735 67.1849,1.0452 29.7984,-0.5308 58.1358,-1.4754 58.1358,-1.4754 l 0.1967,-0.025 c 4.4136,-1.0031 8.9224,-1.6308 13.2344,-3.0473 -3.4392,4.7248 -10.6301,6.25 -17.0659,7.0835 -40.5682,1.1706 -81.6045,0.2351 -121.4687,2.8147 l -0.2367,0.043 c -11.1471,3.3929 -17.2715,17.3269 -25.3302,25.1619 l -18.105,23.0352 c -0.6902,0.8779 -0.2405,1.7458 0.8749,1.6884 l 9.1464,-0.469 c 0.1153,-0.01 0.6624,-0.2736 0.7377,-0.361 11.6812,-13.5503 19.8286,-30.2925 34.757,-40.8714 3.19,-2.2607 101.7042,-1.4602 111.9635,-1.4492 6.0415,0.01 18.0088,-3.7026 26.2895,-7.9458 -0.3496,0.8772 -1.7212,1.9666 -2.3991,2.6443 -8.2798,7.928 -21.0555,10.7341 -33.5572,11.4988 -12.5361,0.7666 -24.5285,-0.523 -30.8954,-0.545 -21.2254,-0.073 -49.1225,-4.8647 -68.1016,6.9566 -5.3277,3.3183 -4.8042,31.2468 -1.0895,31.2468 h 6.0976 c 2.9721,0 1.4032,-13.9502 1.367,-16.043 -0.085,-4.9045 0.8065,-8.8606 5.7295,-10.9626 39.253,-6.7241 88.6336,8.1099 123.377,-13.2527 l 0.1822,-0.1421 c 8.1736,-7.9692 14.5925,-17.0022 19.0988,-26.6454 -5.1726,14.1684 -16.177,26.8022 -25.5644,38.3727 -0.9771,1.2044 1.8122,5.1939 6.9875,1.75 0.6011,-0.4001 3.3763,-2.0964 3.5516,-2.3154 10.0119,-12.5151 20.8613,-25.865 25.0029,-41.7008 0.2724,-0.36 0.8264,-1.1018 1.2595,-1.2335 0.03,0.021 0.1228,0.077 0.2146,0.2055 l 0.1113,0.1315 1.239,1.2388 c -3.6127,16.2997 -14.0917,29.807 -22.7287,43.6715 -1.0969,1.761 3.321,3.4909 7.3064,1.1609 0.8013,-0.4685 5.3359,-3.8692 5.7317,-4.5244 6.7776,-11.2181 14.2292,-22.4449 16.9204,-35.5082 1.1191,-0.3378 2.657,1.5959 3.145,2.3582 -1.4189,10.0193 -4.8547,18.9412 -9.0002,27.4625 -0.2627,0.54 0.5712,2.2873 0.8359,2.7902 0.4128,0.7847 1.1248,1.5257 2.4487,1.5257 4.5428,0 9.0371,-9.2571 10.1338,-12.4297 1.5164,-4.3867 2.3289,-9.1753 3.8338,-13.4822 2.5212,2.1958 4.9399,10.1016 9.4057,3.6509 l 0.1192,-0.2278 c 1.695,-4.5203 -5.0418,-9.0364 0.7309,-9.4088 0.6643,-0.043 1.0911,-0.6037 0.9553,-1.2555 -0.7185,-3.4491 -2.0376,-6.7376 -3.8183,-9.8235 1.0288,0.7889 2.1504,1.6058 3.3738,2.4525 1.5415,1.0672 2.7988,1.9553 4.28,-0.2823 0.065,-0.099 0.1726,-0.7013 0.1455,-0.8166 -4.062,-17.2043 -16.7017,-32.6825 -32.6521,-41.2529 z"
       id="path4516"
       inkscape:connector-curvature="0" /><g
       id="g11819"
       transform="translate(383.51274,293.88986)"
       style="fill:#231f20;fill-opacity:1"><path
         id="path9703"
         d="m 32.026715,114.44124 c -1.66392,0.014 -3.76757,-0.46247 -4.43408,-0.63135 -0.43209,-0.10949 -3.67601,-0.71598 -3.854,-1.80907 -1.38156,-8.48703 -5.81301,-15.166316 -9.96533,-21.777836 v 5.74072 H 1.1873648 v -39.375 H 13.773305 v 19.3711 c 0,3.58594 0.75,6.38671 2.25,8.40234 1.5,2.03906 3.5625,3.0586 6.1875,3.0586 1.07812,0 2.03906,-0.23438 2.88281,-0.70313 0.84375,-0.4453 1.51173,-1.07812 2.00391,-1.89844 1.96157,-9.46856 1.76688,-18.48594 1.01953,-27.69287 -0.82378,-10.14859 -4.94811,-20.39274 -6.03223,-29.94433 -0.23779,-13.3147 3.80545,-26.47357956 16.26856,-33.0717796 l 0.12158,-0.0557 c 4.0979,-1.5366 4.14553,3.04021 4.31103,5.45801004 0.05,0.6939 0.65336,2.58860996 0.0103,3.12450996 -8.04781,6.7065 -12.25305,16.5270096 -10.87208,26.6455096 2.53386,18.56586 8.70509,32.53874 8.84913,51.28271 -0.84605,11.08456 -2.2488,24.436496 -6.63282,33.147946 -0.2763,0.53367 -1.11541,0.7196 -2.11377,0.72803 z"
         style="fill:#231f20;fill-opacity:1;fill-rule:nonzero;stroke:none;stroke-width:0.99999994"
         inkscape:connector-curvature="0" /><path
         id="path11730"
         style="font-style:normal;font-variant:normal;font-weight:bold;font-stretch:normal;font-size:96px;line-height:1.25;font-family:sans-serif;-inkscape-font-specification:'sans-serif Bold';letter-spacing:0px;word-spacing:0px;fill:#231f20;fill-opacity:1;stroke:none;stroke-width:0.75"
         d="M -187.55551,107.44566 V 96.336284 q -4.32422,1.93359 -8.4375,2.91797 -4.11329,0.984366 -7.76954,0.984366 -4.85156,0 -7.17187,-1.335926 -2.32031,-1.33594 -2.32031,-4.14844 0,-2.10938 1.54687,-3.30469 1.58203,-1.16015 5.69531,-2.0039 l 5.76563,-1.16016 q 8.75391,-1.75781 12.44531,-5.34375 3.69141,-3.58594 3.69141,-10.19531 0,-8.68359 -5.16797,-12.9375 -5.13281,-4.21875 -15.71484,-4.21875 -4.99219,0 -10.01954,0.94922 -5.02734,0.94921 -10.05468,2.8125 v 11.42578 q 5.02734,-2.67188 9.70312,-4.04297 4.71094,-1.33594 9.07031,-1.33594 4.42969,0 6.78516,1.47657 2.35547,1.47656 2.35547,4.21875 0,2.46093 -1.61719,3.79687 -1.58203,1.33594 -6.36328,2.39063 l -5.23828,1.16015 q -7.875,1.6875 -11.53125,5.37891 -3.6211,3.6914 -3.6211,9.94921 0,7.839846 5.0625,12.058596 5.0625,4.21875 14.55469,4.21875 4.32422,0 8.89453,-0.66797 4.57032,-0.63281 9.45704,-1.93359 z"
         inkscape:connector-curvature="0" /><path
         id="path11732"
         style="font-style:normal;font-variant:normal;font-weight:bold;font-stretch:normal;font-size:96px;line-height:1.25;font-family:sans-serif;-inkscape-font-specification:'sans-serif Bold';letter-spacing:0px;word-spacing:0px;fill:#231f20;fill-opacity:1;stroke:none;stroke-width:0.75"
         d="m -172.75473,95.984724 h 12.58593 v -39.375 h -12.58593 z m 0,15.328116 h 12.58593 v -10.26562 h -12.58593 z"
         inkscape:connector-curvature="0" /><path
         id="path11734"
         style="font-style:normal;font-variant:normal;font-weight:bold;font-stretch:normal;font-size:96px;line-height:1.25;font-family:sans-serif;-inkscape-font-specification:'sans-serif Bold';letter-spacing:0px;word-spacing:0px;fill:#231f20;fill-opacity:1;stroke:none;stroke-width:0.75"
         d="m -108.70005,76.402694 v -3.58594 h -29.42578 q 0.45704,-4.42969 3.19923,-6.64453 2.74218,-2.21485 7.66405,-2.21485 3.97266,0 8.1211,1.16016 4.18359,1.19532 8.57812,3.58594 v -9.70312 q -4.46485,-1.6875 -8.92969,-2.53125 -4.46484,-0.87891 -8.92968,-0.87891 -10.6875,0 -16.6289,5.41406 -5.90626,5.44922 -5.90626,15.25781 0,9.63281 5.80078,15.15235 5.83594,5.51953 16.03125,5.51953 9.28125,0 14.83594,-5.58984 5.58984,-5.58985 5.58984,-14.94141 z m -12.9375,4.18359 q 0,3.58594 -2.10938,5.76563 -2.07421,2.21484 -5.44921,2.21484 -3.65625,0 -5.9414,-2.07422 -2.28516,-2.03906 -2.84766,-5.90625 z"
         inkscape:connector-curvature="0" /><path
         id="path11736"
         style="font-style:normal;font-variant:normal;font-weight:bold;font-stretch:normal;font-size:96px;line-height:1.25;font-family:sans-serif;-inkscape-font-specification:'sans-serif Bold';letter-spacing:0px;word-spacing:0px;fill:#231f20;fill-opacity:1;stroke:none;stroke-width:0.75"
         d="m -72.418795,63.289414 q -2.60156,-3.44531 -5.73047,-5.0625 -3.12891,-1.61719 -7.24218,-1.61719 -7.20704,0 -11.91798,5.66015 -4.710935,5.69532 -4.710935,14.48438 0,8.82422 4.710935,14.44922 4.71094,5.66015 11.91798,5.66015 4.11327,0 7.24218,-1.61718 3.12891,-1.61719 5.73047,-5.09766 v 5.83594 h 12.65625 v -35.40235 q 0,-9.49218 -6.01172,-14.48437 -5.97656,-5.02734 -17.36718,-5.02734 -3.69141,0 -7.13673,0.5625 -3.44531,0.5625 -6.92577,1.72265 v 9.8086 q 3.30468,-1.89844 6.46875,-2.8125 3.16406,-0.94922 6.36327,-0.94922 6.1875,0 9.07032,2.70703 2.88281,2.70703 2.88281,8.47265 z m -8.29688,24.5039 q -3.90234,0 -6.08202,-2.88281 -2.17969,-2.88281 -2.17969,-8.15625 0,-5.41406 2.10937,-8.22656 2.10938,-2.77734 6.15234,-2.77734 3.9375,0 6.11719,2.88281 2.17969,2.88281 2.17969,8.12109 0,5.27344 -2.17969,8.15625 -2.17969,2.88281 -6.11719,2.88281 z"
         inkscape:connector-curvature="0" /><path
         id="path11738"
         style="font-style:normal;font-variant:normal;font-weight:bold;font-stretch:normal;font-size:96px;line-height:1.25;font-family:sans-serif;-inkscape-font-specification:'sans-serif Bold';letter-spacing:0px;word-spacing:0px;fill:#231f20;fill-opacity:1;stroke:none;stroke-width:0.75"
         d="m -8.2937952,76.402694 v -3.58594 H -37.719575 q 0.45703,-4.42969 3.19922,-6.64453 2.74218,-2.21485 7.66406,-2.21485 3.97266,0 8.1211,1.16016 4.18359,1.19532 8.57812,3.58594 v -9.70312 q -4.46484,-1.6875 -8.92968,-2.53125 -4.46485,-0.87891 -8.92969,-0.87891 -10.6875,0 -16.62891,5.41406 -5.90625,5.44922 -5.90625,15.25781 0,9.63281 5.80078,15.15235 5.83594,5.51953 16.03125,5.51953 9.28125,0 14.83594,-5.58984 5.5898398,-5.58985 5.5898398,-14.94141 z m -12.9374998,4.18359 q 0,3.58594 -2.10937,5.76563 -2.07422,2.21484 -5.44922,2.21484 -3.65625,0 -5.94141,-2.07422 -2.28515,-2.03906 -2.84765,-5.90625 z"
         inkscape:connector-curvature="0" /></g></g></svg>